HIERARCHY
ROOT Hips
{
	OFFSET -339.306915 540.749023 89.171944
	CHANNELS 6 Xposition Yposition Zposition Zrotation Yrotation Xrotation
	JOINT Spine
	{
		OFFSET 0.000000 2.080078 8.814247
		CHANNELS 6 Xposition Yposition Zposition Zrotation Yrotation Xrotation
		JOINT Spine1
		{
			OFFSET 0.000000 0.000000 8.844139
			CHANNELS 6 Xposition Yposition Zposition Zrotation Yrotation Xrotation
			JOINT Spine2
			{
				OFFSET 0.000000 0.000000 11.682266
				CHANNELS 6 Xposition Yposition Zposition Zrotation Yrotation Xrotation
				JOINT Spine3
				{
					OFFSET 0.000000 0.000000 11.746696
					CHANNELS 6 Xposition Yposition Zposition Zrotation Yrotation Xrotation
					JOINT Neck
					{
						OFFSET 0.000000 0.000000 17.658264
						CHANNELS 6 Xposition Yposition Zposition Zrotation Yrotation Xrotation
						JOINT Neck1
						{
							OFFSET 0.000000 0.000000 5.101517
							CHANNELS 6 Xposition Yposition Zposition Zrotation Yrotation Xrotation
							JOINT Head
							{
								OFFSET 0.000000 0.000000 5.101517
								CHANNELS 6 Xposition Yposition Zposition Zrotation Yrotation Xrotation
								JOINT HeadEnd
								{
									OFFSET 0.000000 0.000000 11.655090
									CHANNELS 6 Xposition Yposition Zposition Zrotation Yrotation Xrotation
									End Site
									{
										OFFSET 0.000000 0.000000 0.100006
									}
								}
							}
						}
					}
					JOINT RightShoulder
					{
						OFFSET -2.625397 0.000000 11.175217
						CHANNELS 6 Xposition Yposition Zposition Zrotation Yrotation Xrotation
						JOINT RightArm
						{
							OFFSET 0.000000 0.000000 10.434708
							CHANNELS 6 Xposition Yposition Zposition Zrotation Yrotation Xrotation
							JOINT RightForeArm
							{
								OFFSET 0.000000 0.000000 29.628418
								CHANNELS 6 Xposition Yposition Zposition Zrotation Yrotation Xrotation
								JOINT RightHand
								{
									OFFSET 0.000000 0.000000 22.857605
									CHANNELS 6 Xposition Yposition Zposition Zrotation Yrotation Xrotation
									JOINT RightHandThumb1
									{
										OFFSET -2.867310 -2.944275 3.959564
										CHANNELS 6 Xposition Yposition Zposition Zrotation Yrotation Xrotation
										JOINT RightHandThumb2
										{
											OFFSET 0.000000 0.000000 3.350403
											CHANNELS 6 Xposition Yposition Zposition Zrotation Yrotation Xrotation
											JOINT RightHandThumb3
											{
												OFFSET 0.000000 0.000000 3.756516
												CHANNELS 6 Xposition Yposition Zposition Zrotation Yrotation Xrotation
												JOINT RightHandThumb4
												{
													OFFSET 0.000000 0.000000 3.147339
													CHANNELS 6 Xposition Yposition Zposition Zrotation Yrotation Xrotation
													End Site
													{
														OFFSET 0.000000 0.000000 0.100006
													}
												}
											}
										}
									}
									JOINT RightHandIndex1
									{
										OFFSET -0.086761 -2.345276 10.030899
										CHANNELS 6 Xposition Yposition Zposition Zrotation Yrotation Xrotation
										JOINT RightHandIndex2
										{
											OFFSET 0.000000 0.000000 4.061096
											CHANNELS 6 Xposition Yposition Zposition Zrotation Yrotation Xrotation
											JOINT RightHandIndex3
											{
												OFFSET 0.000000 0.000000 3.248871
												CHANNELS 6 Xposition Yposition Zposition Zrotation Yrotation Xrotation
												JOINT RightHandIndex4
												{
													OFFSET 0.000000 0.000000 2.639709
													CHANNELS 6 Xposition Yposition Zposition Zrotation Yrotation Xrotation
													End Site
													{
														OFFSET 0.000000 0.000000 0.100006
													}
												}
											}
										}
									}
									JOINT RightHandMiddle1
									{
										OFFSET 0.104095 -0.006775 9.502945
										CHANNELS 6 Xposition Yposition Zposition Zrotation Yrotation Xrotation
										JOINT RightHandMiddle2
										{
											OFFSET 0.000000 0.000000 4.568726
											CHANNELS 6 Xposition Yposition Zposition Zrotation Yrotation Xrotation
											JOINT RightHandMiddle3
											{
												OFFSET 0.000000 0.000000 3.654984
												CHANNELS 6 Xposition Yposition Zposition Zrotation Yrotation Xrotation
												JOINT RightHandMiddle4
												{
													OFFSET 0.000000 0.000000 2.741241
													CHANNELS 6 Xposition Yposition Zposition Zrotation Yrotation Xrotation
													End Site
													{
														OFFSET 0.000000 0.000000 0.100006
													}
												}
											}
										}
									}
									JOINT RightHandRing1
									{
										OFFSET 0.086761 2.267456 8.921707
										CHANNELS 6 Xposition Yposition Zposition Zrotation Yrotation Xrotation
										JOINT RightHandRing2
										{
											OFFSET 0.000000 0.000000 4.061096
											CHANNELS 6 Xposition Yposition Zposition Zrotation Yrotation Xrotation
											JOINT RightHandRing3
											{
												OFFSET 0.000000 0.000000 3.654984
												CHANNELS 6 Xposition Yposition Zposition Zrotation Yrotation Xrotation
												JOINT RightHandRing4
												{
													OFFSET 0.000000 0.000000 2.741241
													CHANNELS 6 Xposition Yposition Zposition Zrotation Yrotation Xrotation
													End Site
													{
														OFFSET 0.000000 0.000000 0.100006
													}
												}
											}
										}
									}
									JOINT RightHandPinky1
									{
										OFFSET -0.173492 4.467224 7.976990
										CHANNELS 6 Xposition Yposition Zposition Zrotation Yrotation Xrotation
										JOINT RightHandPinky2
										{
											OFFSET 0.000000 0.000000 3.350403
											CHANNELS 6 Xposition Yposition Zposition Zrotation Yrotation Xrotation
											JOINT RightHandPinky3
											{
												OFFSET 0.000000 0.000000 2.842758
												CHANNELS 6 Xposition Yposition Zposition Zrotation Yrotation Xrotation
												JOINT RightHandPinky4
												{
													OFFSET 0.000000 0.000000 2.639709
													CHANNELS 6 Xposition Yposition Zposition Zrotation Yrotation Xrotation
													End Site
													{
														OFFSET 0.000000 0.000000 0.100006
													}
												}
											}
										}
									}
									JOINT RightForeArmEnd
									{
										OFFSET 0.000000 0.000000 0.000000
										CHANNELS 6 Xposition Yposition Zposition Zrotation Yrotation Xrotation
										End Site
										{
											OFFSET 0.000000 0.000000 0.100006
										}
									}
								}
								JOINT RightArmEnd
								{
									OFFSET 0.000000 0.000000 0.000000
									CHANNELS 6 Xposition Yposition Zposition Zrotation Yrotation Xrotation
									End Site
									{
										OFFSET 0.000000 0.000000 0.100006
									}
								}
							}
						}
					}
					JOINT LeftShoulder
					{
						OFFSET 2.625397 0.000000 11.175217
						CHANNELS 6 Xposition Yposition Zposition Zrotation Yrotation Xrotation
						JOINT LeftArm
						{
							OFFSET 0.000000 0.000000 10.813629
							CHANNELS 6 Xposition Yposition Zposition Zrotation Yrotation Xrotation
							JOINT LeftForeArm
							{
								OFFSET 0.000000 0.000000 28.724777
								CHANNELS 6 Xposition Yposition Zposition Zrotation Yrotation Xrotation
								JOINT LeftHand
								{
									OFFSET 0.644379 0.328857 25.716171
									CHANNELS 6 Xposition Yposition Zposition Zrotation Yrotation Xrotation
									JOINT LeftHandThumb1
									{
										OFFSET 2.867310 -2.944275 3.959564
										CHANNELS 6 Xposition Yposition Zposition Zrotation Yrotation Xrotation
										JOINT LeftHandThumb2
										{
											OFFSET 0.000000 0.000000 3.350403
											CHANNELS 6 Xposition Yposition Zposition Zrotation Yrotation Xrotation
											JOINT LeftHandThumb3
											{
												OFFSET 0.000000 0.000000 3.756516
												CHANNELS 6 Xposition Yposition Zposition Zrotation Yrotation Xrotation
												JOINT LeftHandThumb4
												{
													OFFSET 0.000000 0.000000 3.100006
													CHANNELS 6 Xposition Yposition Zposition Zrotation Yrotation Xrotation
													End Site
													{
														OFFSET 0.000000 0.000000 0.100006
													}
												}
											}
										}
									}
									JOINT LeftHandIndex1
									{
										OFFSET 0.086761 -2.345276 10.030899
										CHANNELS 6 Xposition Yposition Zposition Zrotation Yrotation Xrotation
										JOINT LeftHandIndex2
										{
											OFFSET 0.000000 0.000000 4.061096
											CHANNELS 6 Xposition Yposition Zposition Zrotation Yrotation Xrotation
											JOINT LeftHandIndex3
											{
												OFFSET 0.000000 0.000000 3.248871
												CHANNELS 6 Xposition Yposition Zposition Zrotation Yrotation Xrotation
												JOINT LeftHandIndex4
												{
													OFFSET 0.000000 0.000000 2.639709
													CHANNELS 6 Xposition Yposition Zposition Zrotation Yrotation Xrotation
													End Site
													{
														OFFSET 0.000000 0.000000 0.100006
													}
												}
											}
										}
									}
									JOINT LeftHandMiddle1
									{
										OFFSET -0.104095 -0.006775 9.502945
										CHANNELS 6 Xposition Yposition Zposition Zrotation Yrotation Xrotation
										JOINT LeftHandMiddle2
										{
											OFFSET 0.000000 0.000000 4.568726
											CHANNELS 6 Xposition Yposition Zposition Zrotation Yrotation Xrotation
											JOINT LeftHandMiddle3
											{
												OFFSET 0.000000 0.000000 3.654984
												CHANNELS 6 Xposition Yposition Zposition Zrotation Yrotation Xrotation
												JOINT LeftHandMiddle4
												{
													OFFSET 0.000000 0.000000 2.741241
													CHANNELS 6 Xposition Yposition Zposition Zrotation Yrotation Xrotation
													End Site
													{
														OFFSET 0.000000 0.000000 0.100006
													}
												}
											}
										}
									}
									JOINT LeftHandRing1
									{
										OFFSET -0.086761 2.267456 8.921707
										CHANNELS 6 Xposition Yposition Zposition Zrotation Yrotation Xrotation
										JOINT LeftHandRing2
										{
											OFFSET 0.000000 0.000000 4.061096
											CHANNELS 6 Xposition Yposition Zposition Zrotation Yrotation Xrotation
											JOINT LeftHandRing3
											{
												OFFSET 0.000000 0.000000 3.654984
												CHANNELS 6 Xposition Yposition Zposition Zrotation Yrotation Xrotation
												JOINT LeftHandRing4
												{
													OFFSET 0.000000 0.000000 2.741241
													CHANNELS 6 Xposition Yposition Zposition Zrotation Yrotation Xrotation
													End Site
													{
														OFFSET 0.000000 0.000000 0.100006
													}
												}
											}
										}
									}
									JOINT LeftHandPinky1
									{
										OFFSET 0.173492 4.467224 7.976990
										CHANNELS 6 Xposition Yposition Zposition Zrotation Yrotation Xrotation
										JOINT LeftHandPinky2
										{
											OFFSET 0.000000 0.000000 3.350403
											CHANNELS 6 Xposition Yposition Zposition Zrotation Yrotation Xrotation
											JOINT LeftHandPinky3
											{
												OFFSET 0.000000 0.000000 2.842758
												CHANNELS 6 Xposition Yposition Zposition Zrotation Yrotation Xrotation
												JOINT LeftHandPinky4
												{
													OFFSET 0.000000 0.000000 2.639709
													CHANNELS 6 Xposition Yposition Zposition Zrotation Yrotation Xrotation
													End Site
													{
														OFFSET 0.000000 0.000000 0.100006
													}
												}
											}
										}
									}
									JOINT LeftForeArmEnd
									{
										OFFSET 0.000000 0.000000 0.000000
										CHANNELS 6 Xposition Yposition Zposition Zrotation Yrotation Xrotation
										End Site
										{
											OFFSET 0.000000 0.000000 0.100006
										}
									}
								}
								JOINT LeftArmEnd
								{
									OFFSET 0.000000 0.000000 0.000000
									CHANNELS 6 Xposition Yposition Zposition Zrotation Yrotation Xrotation
									End Site
									{
										OFFSET 0.000000 0.000000 0.100006
									}
								}
							}
						}
					}
				}
			}
		}
	}
	JOINT RightUpLeg
	{
		OFFSET -11.289948 0.000000 0.000000
		CHANNELS 6 Xposition Yposition Zposition Zrotation Yrotation Xrotation
		JOINT RightLeg
		{
			OFFSET 0.000000 0.000000 -38.200329
			CHANNELS 6 Xposition Yposition Zposition Zrotation Yrotation Xrotation
			JOINT RightFoot
			{
				OFFSET 0.000000 0.000000 -39.900856
				CHANNELS 6 Xposition Yposition Zposition Zrotation Yrotation Xrotation
				JOINT RightToeBase
				{
					OFFSET 0.000000 -15.261658 0.000001
					CHANNELS 6 Xposition Yposition Zposition Zrotation Yrotation Xrotation
					JOINT RightToeBaseEnd
					{
						OFFSET 0.000000 -7.370728 0.000001
						CHANNELS 6 Xposition Yposition Zposition Zrotation Yrotation Xrotation
						End Site
						{
							OFFSET 0.000000 0.000000 0.100000
						}
					}
				}
				JOINT RightLegEnd
				{
					OFFSET 0.000000 0.000000 0.000000
					CHANNELS 6 Xposition Yposition Zposition Zrotation Yrotation Xrotation
					End Site
					{
						OFFSET 0.000000 0.000000 0.100000
					}
				}
			}
			JOINT RightUpLegEnd
			{
				OFFSET 0.000000 0.000000 0.000000
				CHANNELS 6 Xposition Yposition Zposition Zrotation Yrotation Xrotation
				End Site
				{
					OFFSET 0.000000 0.000000 0.099998
				}
			}
		}
	}
	JOINT LeftUpLeg
	{
		OFFSET 11.315674 0.000000 0.000000
		CHANNELS 6 Xposition Yposition Zposition Zrotation Yrotation Xrotation
		JOINT LeftLeg
		{
			OFFSET 0.000000 0.000000 -38.200329
			CHANNELS 6 Xposition Yposition Zposition Zrotation Yrotation Xrotation
			JOINT LeftFoot
			{
				OFFSET 0.000000 0.000000 -39.900856
				CHANNELS 6 Xposition Yposition Zposition Zrotation Yrotation Xrotation
				JOINT LeftToeBase
				{
					OFFSET 0.000000 -15.261658 0.000001
					CHANNELS 6 Xposition Yposition Zposition Zrotation Yrotation Xrotation
					JOINT LeftToeBaseEnd
					{
						OFFSET 0.000000 -7.539978 0.000001
						CHANNELS 6 Xposition Yposition Zposition Zrotation Yrotation Xrotation
						End Site
						{
							OFFSET 0.000000 0.000000 0.100000
						}
					}
				}
				JOINT LeftLegEnd
				{
					OFFSET 0.000000 0.000000 0.000000
					CHANNELS 6 Xposition Yposition Zposition Zrotation Yrotation Xrotation
					End Site
					{
						OFFSET 0.000000 0.000000 0.100000
					}
				}
			}
			JOINT LeftUpLegEnd
			{
				OFFSET 0.000000 0.000000 0.000000
				CHANNELS 6 Xposition Yposition Zposition Zrotation Yrotation Xrotation
				End Site
				{
					OFFSET 0.000000 0.000000 0.099998
				}
			}
		}
	}
}
MOTION
Frames: 2
Frame Time: 0.016667
44.393463 -48.187744 86.603333 -19.526322 -4.011620 -13.968810 0.000012 2.080120 8.814249 0.774825 2.903386 7.393844 0.000003 0.000026 8.844126 0.486312 -0.713372 3.187070 -0.000011 0.000006 11.682280 5.340215 0.736382 6.702692 0.000018 0.000012 11.746700 2.219132 0.596738 7.377217 -0.000004 -0.000008 17.658260 5.111177 0.448420 6.338220 0.000011 -0.000013 5.101509 3.730438 -0.862159 -2.498817 -0.000010 -0.000018 5.101553 0.584372 0.615170 -16.870721 0.000003 -0.000001 11.655091 0.000000 -0.000000 0.000000 -2.625397 0.000055 11.175210 10.134836 -78.983345 0.587951 -0.000031 -0.000024 10.434715 -70.333743 -52.991227 68.109219 -0.000004 0.000000 29.628433 17.581395 -0.386574 76.848719 0.000015 -0.000032 22.857594 16.254739 6.131748 -5.133100 -2.867309 -2.944290 3.959564 32.792008 -27.372125 37.391485 -0.000008 -0.000015 3.350418 -34.922843 10.052904 -58.756839 0.000000 -0.000008 3.756531 -23.319084 10.947681 -40.180777 -0.000014 0.000002 3.147336 -0.000000 -0.000001 0.000000 -0.086766 -2.345260 10.030931 -65.156924 -88.219311 55.702682 0.000000 0.000008 4.061096 8.958352 -62.361505 -15.568508 -0.000019 0.000004 3.248871 9.458373 -62.361492 -15.568545 -0.000014 0.000011 2.639709 -0.000001 -0.000001 -0.000001 0.104092 -0.006769 9.502954 78.373361 -96.647184 -83.461025 -0.000021 -0.000031 4.568758 3.353362 -63.986298 -6.164698 -0.000010 0.000005 3.655018 3.853364 -63.986319 -6.164695 0.000006 -0.000002 2.741230 -0.000000 -0.000001 0.000003 0.086758 2.267483 8.921719 40.270700 -112.071868 -37.255031 -0.000004 -0.000024 4.061100 -8.721227 -74.518662 12.757515 0.000002 0.000001 3.654961 -9.721180 -74.518648 12.757479 0.000008 -0.000003 2.741240 0.000000 0.000001 -0.000001 -0.173492 4.467245 7.976990 43.137217 -122.976914 -31.285026 -0.000011 -0.000069 3.350407 -40.019909 -76.180938 52.208043 -0.000011 -0.000034 2.842758 -42.019839 -76.180945 52.207996 0.000001 -0.000003 2.639706 0.000000 -0.000001 0.000000 -0.000007 -0.000009 0.000000 0.000000 -0.000000 0.000002 -0.000008 -0.000005 0.000000 0.000000 0.000000 0.000000 2.625414 0.000024 11.175231 -10.671244 86.301564 -0.350419 0.000015 0.000012 10.813637 59.049642 54.364877 48.517883 0.000004 0.000053 28.724712 -20.512697 -1.531733 97.896453 0.644390 0.328907 25.716141 -37.760042 7.580106 14.314991 2.867306 -2.944305 3.959534 -33.139429 28.347057 36.089996 -0.000008 0.000015 3.350399 36.942666 -9.504450 -62.049209 -0.000015 0.000015 3.756493 24.776779 -11.039125 -42.506747 -0.000004 -0.000003 3.100014 0.000001 -0.000001 -0.000002 0.086794 -2.345263 10.030907 -50.148072 113.919024 -51.080454 -0.000008 0.000013 4.061115 17.943260 71.788239 25.287570 0.000011 0.000006 3.248867 18.443261 71.788239 25.287587 0.000004 -0.000003 2.639747 0.000000 -0.000000 -0.000001 -0.104088 -0.006772 9.502953 -46.635114 108.376784 -43.647436 0.000019 -0.000009 4.568752 6.088221 71.687159 9.110995 0.000021 0.000021 3.654976 6.588228 71.687166 9.110995 -0.000002 0.000005 2.741265 0.000000 0.000000 -0.000001 -0.086761 2.267439 8.921715 -15.940393 108.766692 -8.795111 0.000023 -0.000013 4.061081 -8.911363 74.739543 -12.954705 0.000032 -0.000040 3.654995 -9.911421 74.739543 -12.954752 0.000001 -0.000009 2.741269 0.000001 0.000001 -0.000002 0.173538 4.467205 7.976982 8.975484 110.574889 20.951822 0.000015 -0.000031 3.350422 -24.048425 71.536478 -35.603536 0.000008 0.000011 2.842773 -26.048608 71.536437 -35.603676 -0.000013 0.000045 2.639732 0.000001 -0.000000 -0.000002 0.000049 0.000013 0.000023 -0.000003 -0.000003 0.000001 -0.000001 0.000005 0.000001 -0.000001 -0.000004 -0.000000 -11.289967 0.000122 0.000015 11.492794 3.498821 -3.260662 -0.000003 0.000055 -38.200291 0.270535 -0.205160 37.174934 -0.000001 0.000083 -39.900852 -15.632623 0.313726 7.351462 -0.000003 -15.261662 0.000000 -0.786039 1.375878 -23.438235 0.000015 -7.370651 0.000001 -0.000002 0.000001 0.000000 -0.000010 0.000070 0.000001 -0.000001 0.000000 0.000003 -0.000006 0.000047 -0.000001 0.000002 0.000000 0.000001 11.315626 0.000080 0.000008 15.102936 5.061511 11.315477 -0.000015 0.000041 -38.200310 0.012303 -0.003658 16.566742 0.000030 0.000012 -39.900864 16.630464 -1.715211 10.219925 0.000010 -15.261639 0.000014 -0.571986 -0.580289 -17.802760 -0.000007 -7.539915 0.000001 -0.000000 -0.000000 -0.000000 -0.000027 0.000003 0.000005 -0.000001 0.000000 -0.000002 -0.000027 -0.000002 -0.000005 0.000001 0.000000 0.000001 
44.577393 -48.129272 86.327896 -19.755069 -4.566840 -14.468552 -0.000010 2.080085 8.814240 0.805473 3.140450 7.996532 0.000013 0.000083 8.844146 0.597369 -0.517756 3.511708 0.000008 0.000013 11.682273 5.586753 0.841073 6.663113 -0.000003 -0.000010 11.746701 2.322886 0.684921 7.238960 -0.000002 -0.000065 17.658262 4.855320 -0.043778 5.346916 0.000015 0.000018 5.101522 3.591134 -0.907068 -2.896135 -0.000012 0.000012 5.101526 0.576348 0.477671 -17.162814 -0.000000 0.000000 11.655063 0.000000 0.000000 0.000000 -2.625404 0.000010 11.175229 10.380120 -78.856160 0.562157 -0.000004 0.000024 10.434715 -70.350457 -53.496695 68.571616 0.000000 -0.000008 29.628414 18.424654 -0.625482 69.892745 0.000010 -0.000053 22.857601 16.793629 5.804713 -6.487854 -2.867262 -2.944290 3.959549 32.664936 -26.982884 37.911330 0.000038 -0.000015 3.350399 -34.105580 10.240033 -57.433292 0.000008 0.000015 3.756546 -22.737418 10.894867 -39.251417 0.000003 0.000061 3.147330 -0.000000 -0.000002 0.000000 -0.086761 -2.345269 10.030904 -32.148136 -86.979351 22.983035 0.000004 0.000023 4.061104 8.257662 -61.138369 -14.773143 -0.000019 0.000021 3.248871 8.757654 -61.138362 -14.773127 0.000006 -0.000005 2.639704 0.000000 0.000001 -0.000001 0.104101 -0.006794 9.502960 93.563182 -96.524247 -98.558366 0.000004 0.000090 4.568737 3.069671 -62.778181 -5.847373 -0.000009 0.000049 3.654982 3.569683 -62.778222 -5.847404 0.000015 -0.000007 2.741259 0.000000 -0.000002 -0.000002 0.086765 2.267458 8.921719 43.101373 -110.938070 -40.052222 0.000008 0.000001 4.061106 -7.885931 -73.464169 11.888539 -0.000036 0.000011 3.654980 -8.885899 -73.464156 11.888512 -0.000010 0.000001 2.741266 -0.000000 -0.000000 -0.000000 -0.173485 4.467207 7.977005 44.986734 -121.926458 -33.109905 -0.000015 0.000000 3.350410 -36.831136 -75.540130 48.919765 -0.000038 0.000019 2.842758 -38.830930 -75.540075 48.919526 0.000028 -0.000003 2.639710 0.000001 -0.000001 0.000001 -0.000002 -0.000009 0.000009 -0.000001 -0.000000 -0.000002 -0.000001 0.000001 0.000026 0.000000 -0.000001 -0.000001 2.625381 -0.000008 11.175200 -11.092719 86.680251 -0.394220 0.000015 0.000000 10.813679 56.290622 53.001250 48.707947 -0.000046 0.000029 28.724699 -20.755391 -1.608238 92.835556 0.644348 0.328884 25.716183 -43.689766 8.107852 11.643948 2.867306 -2.944290 3.959579 -33.139402 28.347066 36.090016 0.000015 0.000031 3.350391 36.942670 -9.504470 -62.049209 -0.000015 -0.000046 3.756531 24.776781 -11.039113 -42.506767 0.000015 -0.000022 3.100048 0.000002 -0.000004 0.000002 0.086714 -2.345259 10.030910 -50.074654 113.943326 -51.196045 0.000015 -0.000006 4.061111 17.953948 71.795349 25.298855 0.000023 0.000000 3.248886 18.454500 71.795431 25.299331 0.000005 0.000056 2.639727 -0.000000 -0.000002 -0.000000 -0.104065 -0.006787 9.502949 -47.354934 108.169870 -44.057613 0.000002 -0.000006 4.568718 5.987530 71.487663 9.004882 0.000023 0.000013 3.655016 6.487545 71.487690 9.004860 -0.000008 -0.000001 2.741263 -0.000001 -0.000001 -0.000002 -0.086754 2.267466 8.921684 -16.914313 107.872982 -9.332329 -0.000004 -0.000020 4.061085 -8.357392 74.077083 -12.379570 -0.000002 0.000013 3.654976 -9.357441 74.077083 -12.379609 0.000025 -0.000012 2.741254 0.000001 0.000000 -0.000002 0.173492 4.467213 7.977005 9.382925 108.954829 21.869265 -0.000038 -0.000004 3.350384 -22.005686 70.572260 -33.443864 0.000008 0.000053 2.842758 -24.005745 70.572267 -33.443960 0.000030 -0.000017 2.639723 0.000000 -0.000001 -0.000001 0.000000 0.000001 0.000033 0.000000 0.000004 -0.000000 -0.000010 0.000081 0.000026 -0.000003 -0.000001 -0.000000 -11.289967 0.000039 0.000008 10.156309 4.389421 -4.083283 0.000010 0.000055 -38.200310 0.435995 -0.360256 39.565712 -0.000000 -0.000012 -39.900848 -17.461667 0.359720 7.067124 -0.000004 -15.261654 -0.000011 -1.026443 1.459058 -23.414495 -0.000043 -7.370660 0.000000 -0.000001 0.000000 -0.000000 -0.000008 0.000071 -0.000001 -0.000002 0.000000 0.000001 -0.000003 0.000000 -0.000004 -0.000000 0.000000 0.000002 11.315681 0.000020 -0.000002 15.553316 5.511320 11.203214 -0.000054 0.000063 -38.200306 -0.031449 0.010213 17.988717 -0.000041 0.000006 -39.900864 16.733248 -1.649947 9.500982 -0.000008 -15.261631 -0.000005 -0.584914 -0.530635 -17.684359 -0.000010 -7.539982 0.000001 0.000001 0.000000 -0.000000 0.000001 -0.000064 0.000001 0.000000 0.000001 -0.000003 -0.000003 -0.000001 -0.000008 0.000000 -0.000000 -0.000002 
